<?xml version="1.0" encoding="utf-8"?>
<!-- Generator: Adobe Illustrator 16.0.0, SVG Export Plug-In . SVG Version: 6.00 Build 0)  -->
<!DOCTYPE svg PUBLIC "-//W3C//DTD SVG 1.1//EN" "http://www.w3.org/Graphics/SVG/1.1/DTD/svg11.dtd">
<svg version="1.1" id="bg3_xA0_Image_1_" xmlns="http://www.w3.org/2000/svg" xmlns:xlink="http://www.w3.org/1999/xlink" x="0px"
	 y="0px" width="1471px" height="537px" viewBox="0 0 1471 537" enable-background="new 0 0 1471 537" xml:space="preserve">
<g>
	<g>
		<path fill="#FFFFFF" d="M1,538C1,358.828,1,180.017,1,1.103c490.333,0,980.667,0,1470.978,0c0,178.972,0,357.935,0,536.897
			C981.684,538,491.411,538,1,538z M181.979,322.881C256.893,233.386,331.631,144.102,407.053,54
			c-9.527,0-17.951-0.196-26.354,0.136c-2.137,0.085-4.849,1.308-6.215,2.923c-30.763,36.368-61.38,72.859-92.013,109.337
			c-42.422,50.515-84.836,101.036-127.249,151.559c-7.014,8.354-14.002,16.729-21.131,25.247c13.672,0,26.751,0.107,39.829-0.02
			c36.97-0.361,73.939-0.852,110.911-1.132c1.666-0.013,3.74,1.157,4.942,2.423c3.774,3.978,7.225,8.264,10.797,12.433
			c13.111,15.302,26.167,30.587,34.801,49.123c9.399,20.18,8.065,39.367-4.36,57.705c-6.144,9.068-14.734,15.399-25.629,16.657
			c-22.511,2.6-42.174-4.509-56.657-21.926c-19.801-23.812-26.367-52.871-29.574-82.863c-0.77-7.195-1.195-14.427-1.775-21.604
			c-4.118-0.658-6.11,0.443-6.583,4.418c-0.527,4.435-1.793,8.775-2.495,13.195c-1.505,9.486-3.92,18.993-3.958,28.499
			c-0.035,8.861,2.086,17.83,4.039,26.578c3.661,16.401,10.141,30.796,25.383,40.554c12.74,8.155,24.438,17.878,38.927,23.087
			c18.789,6.754,37.685,9.433,56.999,2.211c31.96-11.951,45.912-47.907,46.588-71.8c0.646-22.804-8.305-42.443-21.94-60.214
			c-4.518-5.889-9.046-11.77-14.285-18.584c10.064,0.929,17.177-3.04,22.689-9.682c10.778-12.984,19.983-27.047,26.844-42.505
			c2.846-6.414,5.782-13.569,3.023-20.288c-5.412-13.177-11.893-25.927-18.28-38.679c-1.173-2.341-3.732-4.331-6.112-5.656
			c-6.241-3.476-12.555-6.945-19.163-9.618c-28.038-11.337-58.46-2.841-76.065,21.552c-10.382,14.384-17.356,30.505-13.699,48.531
			c2.208,10.887,7.511,21.15,11.491,31.668c0.607,1.604,1.578,3.07,2.914,5.616C242.621,322.881,212.606,322.881,181.979,322.881z
			 M82.37,78.924c72.183-1.534,144.425-3.068,216.667-4.604c0.139,0.496,0.279,0.992,0.418,1.488
			c-75.111,89.35-150.223,178.699-225.508,268.255c9.305,0,17.762-0.134,26.21,0.069c3.157,0.076,5.103-1.002,7.125-3.429
			c26.542-31.864,53.216-63.619,79.853-95.404c49.857-59.491,99.714-118.982,149.561-178.482c3.134-3.741,6.185-7.551,9.701-11.85
			c-88.701-0.675-176.451,4.251-264.027,0.135C82.37,62.995,82.37,70.285,82.37,78.924z M507.747,190.23
			c2.309-1.698,5.317-3.722,8.115-6.001c14.321-11.67,14.276-34.706-0.152-45.84c-7.61-5.873-16.589-8.85-25.967-9.327
			c-16.617-0.846-33.278-0.883-49.923-1.064c-5.144-0.056-10.323,0.302-15.424,0.957c-1.251,0.161-2.897,2.121-3.15,3.479
			c-0.169,0.908,1.641,2.469,2.874,3.257c0.873,0.558,2.289,0.536,3.413,0.39c9.774-1.277,13.858,3.873,13.723,14.169
			c-0.196,14.994-0.115,29.993-0.271,44.988c-0.193,18.485-0.419,36.973-0.81,55.455c-0.178,8.436-2.449,10.528-10.779,10.944
			c-0.996,0.05-2.231-0.204-2.938,0.286c-1.828,1.266-3.423,2.868-5.111,4.336c1.841,1.033,3.661,2.924,5.525,2.967
			c18.642,0.431,37.297,0.955,55.935,0.637c13.436-0.229,26.469-3.061,37.919-10.78c19.15-12.912,22.048-39.883,5.499-55.924
			C520.982,198.078,514.154,194.634,507.747,190.23z M1114,222.5c0,9.597,0,18.562,0,27.526c0,10.677,0,10.677-10.437,13.145
			c-0.324,0.077-0.742,0.063-0.951,0.265c-0.968,0.927-2.652,1.946-2.615,2.873c0.049,1.189,1.277,2.695,2.411,3.366
			c1.014,0.6,2.588,0.311,3.915,0.312c9.461,0.018,18.924,0.101,28.382-0.048c2.701-0.042,6.823,1.543,7.198-3.006
			c0.36-4.382-3.841-3.709-6.537-4.288c-6.284-1.351-7.522-2.693-7.527-8.996c-0.017-18.997-0.01-37.993-0.005-56.99
			c0.003-9.496,0.283-9.574,9.607-11.541c2.096-0.442,3.792-2.774,5.672-4.235c-2.018-0.905-4.015-2.532-6.057-2.592
			c-9.628-0.276-19.269-0.146-28.905-0.102c-1.646,0.007-3.433-0.05-4.89,0.56c-1.186,0.496-2.686,1.911-2.732,2.978
			c-0.046,1.027,1.392,2.633,2.535,3.086c1.968,0.782,4.38,0.497,6.294,1.354c1.749,0.784,4.324,2.423,4.397,3.799
			c0.421,7.904,0.205,15.843,0.205,23.702c-16.23,0-31.805,0-47.794,0c0-5.626-0.003-10.927,0.001-16.228
			c0.007-9.231,0.741-9.834,9.781-11.696c2.129-0.438,5.455-2.785,5.464-4.271c0.022-3.707-3.664-2.95-6.2-2.94
			c-9.318,0.036-18.646-0.026-27.946,0.431c-3.029,0.148-8.007-2.563-8.806,2.559c-0.766,4.903,4.51,4.618,7.554,5.361
			c4.358,1.064,6.042,3.398,6.062,7.693c0.049,11.157,0.381,22.314,0.391,33.472c0.008,8.822-0.387,17.645-0.422,26.468
			c-0.018,4.524-1.729,7.322-6.447,7.866c-0.986,0.113-2.214,0.157-2.861,0.747c-1.337,1.218-2.357,2.781-3.508,4.203
			c1.498,0.889,2.999,2.539,4.494,2.534c6.315-0.021,12.626-0.684,18.944-0.816c4.486-0.095,8.994,0.531,13.469,0.321
			c1.773-0.083,4.638-1.226,4.987-2.459c0.82-2.892-1.613-3.833-4.238-4.069c-1.649-0.148-3.259-0.742-4.908-0.879
			c-3.648-0.3-5.662-2.582-5.732-5.82c-0.236-10.923-0.09-21.854-0.09-33.645c11.313,0,21.945,0,32.576,0
			C1103.554,222.5,1108.376,222.5,1114,222.5z M684.981,273.119c24.635,1.566,47.659-18.002,47.793-48.348
			c0.133-30.094-19.98-50.52-49.794-50.547c-29.245-0.027-48.977,19.626-48.98,48.785
			C633.997,252.693,654.771,273.113,684.981,273.119z M872.628,220.238c-0.496-0.242-0.992-0.483-1.488-0.725
			c0-9.758-0.263-19.528,0.234-29.261c0.093-1.831,3.021-3.807,5.021-5.146c1.253-0.839,3.359-0.3,4.824-0.955
			c1.42-0.636,2.51-2.009,3.746-3.058c-1.375-1.03-2.731-2.925-4.129-2.955c-11.123-0.244-22.257-0.244-33.379,0.014
			c-1.276,0.029-2.504,2.104-3.755,3.231c1.231,0.99,2.368,2.675,3.708,2.856c7.832,1.063,9.481,2.503,9.549,10.278
			c0.172,19.828,0.144,39.658,0.292,59.486c0.036,4.771-1.882,7.582-6.759,8.188c-1.479,0.184-3.052,0.396-4.337,1.063
			c-0.985,0.514-2.317,1.882-2.191,2.659c0.192,1.191,1.339,2.43,2.403,3.207c0.674,0.493,1.932,0.229,2.929,0.23
			c9.63,0.014,19.26,0.012,28.89,0.012c1.167,0,2.572,0.396,3.447-0.114c1.523-0.889,2.719-2.339,4.051-3.554
			c-1.2-1.182-2.23-2.688-3.658-3.436c-1.037-0.542-2.601-0.116-3.926-0.053c-3.546,0.167-6.26-1.512-6.37-4.921
			c-0.323-9.994-0.115-20.005-0.115-30.57c8.839,9.61,18.177,18.147,25.51,28.152c8.776,11.974,19.554,16.489,33.772,14.134
			c0.162-0.027,0.334-0.015,0.5-0.004c3.771,0.247,5.561-1.514,5.447-5.583c-2.357-0.705-4.799-1.235-7.075-2.166
			c-3.019-1.233-6.548-2.132-8.747-4.301c-12.444-12.27-24.557-24.877-37.127-37.724c3.482-3.668,6.498-7.484,10.141-10.558
			c10.654-8.988,17.271-23.494,33.648-24.868c0.905-0.076,1.627-2.346,2.433-3.594c-1.271-0.735-2.544-2.106-3.813-2.104
			c-9.475,0.025-18.953,0.204-28.416,0.654c-1.531,0.072-2.986,1.729-4.477,2.654c1.336,0.914,2.559,2.317,4.027,2.655
			c5.422,1.249,6.488,3.152,2.699,7.308C891.186,201.194,881.824,210.641,872.628,220.238z M1392.501,243.539
			c-0.421,0.095-0.843,0.189-1.265,0.284c-1.796-1.943-3.599-3.879-5.385-5.83c-17.084-18.66-34.143-37.343-51.293-55.941
			c-1.263-1.369-3.104-2.857-4.812-3.043c-5.442-0.593-10.954-0.825-16.427-0.684c-1.565,0.041-3.086,1.823-4.627,2.807
			c1.264,1.221,2.373,2.695,3.839,3.584c1.221,0.74,2.899,0.678,4.304,1.172c6.019,2.117,9.517,7.232,9.344,13.423
			c-0.462,16.472-0.971,32.941-1.319,49.415c-0.193,9.131-1.688,11.049-10.418,13.764c-1.765,0.548-3.036,2.679-4.535,4.079
			c1.804,0.976,3.594,2.758,5.412,2.787c8.619,0.14,17.247-0.178,25.87-0.391c1.316-0.032,2.81-0.044,3.881-0.657
			c0.936-0.535,1.918-1.906,1.917-2.907c0-1.036-0.93-2.493-1.868-3.002c-1.246-0.676-2.899-0.583-4.367-0.872
			c-6.223-1.227-8.206-3.342-8.519-9.723c-0.17-3.479,0.118-6.983,0.273-10.473c0.556-12.549,1.144-25.096,1.766-38.655
			c21.557,23.661,42.451,46.597,63.347,69.531c1.266-1.747,1.427-2.687,1.449-3.629c0.599-24.456,1.235-48.911,1.73-73.369
			c0.111-5.468,1.067-9.888,7.545-11.022c1.053-0.184,2.542-2.385,2.415-3.491c-0.122-1.06-2.068-2.696-3.243-2.723
			c-9.616-0.217-19.243-0.235-28.856,0.045c-1.165,0.034-2.904,2.074-3.181,3.43c-0.191,0.938,1.523,2.495,2.685,3.387
			c0.668,0.514,1.932,0.242,2.925,0.343c8.623,0.876,10.669,2.894,10.905,11.627c0.306,11.314,0.366,22.637,0.5,33.956
			C1392.543,235.019,1392.501,239.279,1392.501,243.539z M1232.934,268.463c5.146,0.297,9.803,0.804,14.449,0.719
			c1.955-0.036,3.888-1.325,5.83-2.045c-1.378-1.755-2.402-4.36-4.199-5.107c-5.812-2.414-9.403-6.441-11.715-12.183
			c-8.014-19.896-16.19-39.728-24.367-59.559c-1.521-3.687-3.159-7.346-5.039-10.859c-4.047-7.56-6.426-7.667-10.845-0.505
			c-2.443,3.96-4.807,7.999-6.824,12.188c-9.164,19.028-18.229,38.104-27.25,57.202c-3.26,6.902-7.877,12.212-15.245,14.966
			c-1.513,0.564-2.551,2.396-3.809,3.644c1.648,0.969,3.279,2.74,4.945,2.773c8.637,0.176,17.285,0.001,25.92-0.305
			c1.327-0.048,2.607-1.41,3.908-2.164c-0.831-1.332-1.465-2.871-2.563-3.925c-0.753-0.722-2.136-0.844-3.267-1.104
			c-4.26-0.982-5.454-3.607-3.707-7.418c2.842-6.196,5.787-12.353,8.96-18.383c0.6-1.14,2.451-2.268,3.745-2.291
			c10.16-0.188,20.328-0.187,30.488,0c1.274,0.023,3.155,1.17,3.677,2.295c2.512,5.424,4.901,10.933,6.863,16.575
			c2.239,6.443,1.43,7.273-5.221,9.631c-1.784,0.632-3.03,2.785-4.523,4.24c1.777,0.882,3.548,2.49,5.332,2.507
			C1223.455,269.398,1228.438,268.783,1232.934,268.463z M943.998,218.939c0.007,27.16,10.535,43.931,28.183,51.144
			c18.125,7.408,40.686,2.775,54.276-11.771c3.135-3.354,4.936-8.108,6.739-12.472c0.656-1.588-0.468-3.911-0.78-5.899
			c-1.59,0.95-3.386,1.673-4.732,2.892c-5.529,5.006-10.406,10.907-16.473,15.109c-12.603,8.729-27.342,6.779-38.166-4.049
			c-14.963-14.968-17.537-40.991-5.836-58.539c4.825-7.236,11.387-11.643,20.153-12.136c9.619-0.541,18.22,2.43,24.901,9.38
			c3.994,4.155,6.953,9.289,10.652,13.756c0.954,1.152,3.013,2.058,4.434,1.9c0.836-0.093,2.134-2.579,1.993-3.854
			c-0.854-7.76-1.844-15.52-3.241-23.197c-0.737-4.053-2.454-4.206-5.796-1.56c-1.216,0.964-3.204,1.9-4.554,1.592
			c-7.256-1.655-14.34-4.146-21.639-5.515c-10.037-1.881-19.656,0.151-28.094,5.932
			C950.797,192.079,944.193,207.064,943.998,218.939z M748.547,224.611c-0.111,9.038,1.492,17.623,5.908,25.528
			c15.063,26.966,52.717,31.634,75.433,9.062c3.487-3.464,5.613-8.45,7.771-13.016c0.742-1.571-0.34-4.004-0.588-6.044
			c-1.713,1.003-3.636,1.765-5.1,3.05c-5.854,5.138-11.014,11.279-17.447,15.497c-12.151,7.967-26.961,5.938-36.916-4.622
			c-14.078-14.934-16.763-32.519-9.637-51.374c8.126-21.498,32.049-26.563,48.566-10.413c4.105,4.014,6.985,9.259,10.67,13.739
			c0.995,1.21,2.875,1.693,4.35,2.51c0.805-1.477,2.42-3.036,2.278-4.416c-0.778-7.607-1.796-15.204-3.124-22.735
			c-0.709-4.028-2.898-4.613-5.748-1.691c-2.094,2.147-3.664,1.972-6.457,0.969c-13.631-4.895-27.735-8.679-41.733-2.212
			C757.322,187.427,749.247,203.921,748.547,224.611z M608.667,268.119c0,0.412,0.001,0.825,0.002,1.238
			c3.159,0,6.338,0.201,9.47-0.093c1.384-0.131,3.603-1.022,3.857-1.987c1.819-6.887,3.331-13.861,4.66-20.862
			c0.202-1.065-1.05-2.406-1.63-3.619c-1.052,0.643-2.391,1.06-3.106,1.968c-2.979,3.785-5.486,7.982-8.75,11.484
			c-1.617,1.735-4.455,3.103-6.817,3.231c-7.47,0.406-14.978,0.055-22.467,0.19c-3.701,0.067-4.948-1.528-4.93-5.112
			c0.099-19.646-0.015-39.292,0.086-58.938c0.042-8.097,1.367-9.284,9.258-11.263c1.668-0.418,2.937-2.437,4.389-3.717
			c-1.619-0.92-3.222-2.603-4.858-2.635c-10.614-0.209-21.236-0.036-31.855-0.046c-2.358-0.003-4.823-0.519-5.191,2.963
			c-0.399,3.774,2.279,3.269,4.569,3.469c8.224,0.718,9.504,2.155,9.524,10.612c0.045,18.812,0.087,37.625,0.118,56.438
			c0.016,9.528-0.006,9.489-9.155,11.462c-1.337,0.288-3.292,0.842-3.688,1.8c-1.358,3.28,0.669,4.718,3.689,4.588
			c5.808-0.248,11.6-1.027,17.406-1.117C585.053,267.99,596.861,268.119,608.667,268.119z M1277.094,179.37
			c-0.005-0.262-0.009-0.523-0.014-0.785c-4.484,0-8.985-0.202-13.445,0.13c-1.25,0.094-2.383,1.759-3.57,2.703
			c1.072,1.001,2.038,2.17,3.256,2.941c0.777,0.493,1.926,0.42,2.912,0.562c6.399,0.923,7.84,2.314,7.899,8.581
			c0.188,19.799,0.315,39.6,0.332,59.399c0.007,7.3-1.294,8.39-8.275,10.059c-1.973,0.472-3.576,2.489-5.35,3.798
			c2.069,0.776,4.121,2.161,6.21,2.221c7.449,0.212,14.911-0.051,22.368-0.082c3.323-0.014,6.677,0.374,9.954,0.01
			c1.212-0.135,2.244-1.899,3.358-2.922c-1.005-0.965-1.894-2.123-3.058-2.826c-0.775-0.468-1.947-0.255-2.935-0.399
			c-7.319-1.07-8.562-2.515-8.566-10.088c-0.012-18.142-0.006-36.282-0.003-54.424c0.003-10.502,0.043-10.387,10.031-13.508
			c1.683-0.525,2.904-2.525,4.339-3.845c-1.681-0.909-3.368-2.606-5.04-2.589C1290.694,178.375,1283.895,178.97,1277.094,179.37z
			 M113.343,87.532c-11.395,0-22.2,0-33.243,0c-0.464,3.472-0.888,6.648-1.378,10.318c7.121,0,13.561,0.076,19.996-0.068
			c1.19-0.027,2.514-0.746,3.513-1.496C105.782,93.621,109.219,90.804,113.343,87.532z M75.341,129.032
			c3.461-1.224,6.789-1.354,7.672-2.89c4.085-7.109,7.491-14.608,11.377-22.443c-4.675,0-9.418-0.153-14.137,0.122
			c-1.006,0.059-2.641,1.585-2.762,2.583C76.641,113.418,76.11,120.47,75.341,129.032z M201.413,408.569
			c-3.774,8.996-3.58,18.589,0.908,28.088c0.778,1.646,1.409,3.402,1.813,5.175c1.103,4.834,4.208,7.454,8.046,8.436
			C208.576,436.309,204.908,422.104,201.413,408.569z M202.618,446.069c-1.908-5.419-3.75-10.651-6.052-17.191
			c-1.523,6.624-2.687,11.683-3.954,17.191C196.314,446.069,199.236,446.069,202.618,446.069z"/>
		<path fill-rule="evenodd" clip-rule="evenodd" d="M181.979,322.881c30.627,0,60.642,0,91.713,0
			c-1.336-2.546-2.307-4.013-2.914-5.616c-3.979-10.518-9.283-20.781-11.491-31.668c-3.657-18.026,3.317-34.147,13.699-48.531
			c17.605-24.393,48.028-32.889,76.065-21.552c6.608,2.673,12.922,6.143,19.163,9.618c2.38,1.325,4.939,3.315,6.112,5.656
			c6.388,12.752,12.869,25.502,18.28,38.679c2.759,6.719-0.177,13.874-3.023,20.288c-6.86,15.458-16.066,29.521-26.844,42.505
			c-5.512,6.642-12.625,10.61-22.689,9.682c5.238,6.814,9.767,12.695,14.285,18.584c13.635,17.771,22.586,37.41,21.94,60.214
			c-0.676,23.893-14.628,59.849-46.588,71.8c-19.314,7.222-38.21,4.543-56.999-2.211c-14.49-5.209-26.188-14.932-38.927-23.087
			c-15.242-9.758-21.723-24.152-25.383-40.554c-1.953-8.748-4.074-17.717-4.039-26.578c0.038-9.506,2.452-19.013,3.958-28.499
			c0.701-4.42,1.968-8.761,2.495-13.195c0.473-3.975,2.465-5.076,6.583-4.418c0.581,7.178,1.006,14.409,1.775,21.604
			c3.207,29.992,9.772,59.051,29.574,82.863c14.483,17.417,34.146,24.525,56.657,21.926c10.895-1.258,19.485-7.589,25.629-16.657
			c12.425-18.338,13.759-37.525,4.36-57.705c-8.633-18.536-21.689-33.821-34.801-49.123c-3.572-4.169-7.022-8.455-10.797-12.433
			c-1.202-1.266-3.276-2.436-4.942-2.423c-36.971,0.28-73.94,0.771-110.911,1.132c-13.077,0.127-26.157,0.02-39.829,0.02
			c7.128-8.518,14.117-16.893,21.131-25.247c42.413-50.522,84.827-101.044,127.249-151.559
			c30.633-36.478,61.25-72.969,92.013-109.337c1.366-1.615,4.078-2.838,6.215-2.923C389.102,53.804,397.526,54,407.053,54
			C331.631,144.102,256.893,233.386,181.979,322.881z M324.878,225.612c-3.265,1.121-9.54,1.812-13.925,5.058
			c-12.801,9.475-18.286,23.116-17.28,38.796c1.01,15.756,9.563,28.418,18.829,40.575c7.894,10.357,7.851,10.386,20.322,7.917
			c15.512-3.071,30.16-8.217,42.825-18.024c12.202-9.448,16.988-23.627,11.077-35.6C374.663,239.897,354.18,227.965,324.878,225.612
			z"/>
		<path fill-rule="evenodd" clip-rule="evenodd" d="M82.37,78.924c0-8.639,0-15.929,0-23.821
			c87.576,4.116,175.326-0.81,264.027-0.135c-3.516,4.299-6.567,8.108-9.701,11.85c-49.847,59.5-99.704,118.991-149.561,178.482
			c-26.637,31.785-53.311,63.54-79.853,95.404c-2.022,2.427-3.967,3.505-7.125,3.429c-8.449-0.203-16.906-0.069-26.21-0.069
			c75.285-89.556,150.396-178.905,225.508-268.255c-0.139-0.496-0.279-0.992-0.418-1.488C226.795,75.855,154.552,77.39,82.37,78.924
			z"/>
		<path fill-rule="evenodd" clip-rule="evenodd" d="M507.747,190.23c6.408,4.403,13.235,7.848,18.477,12.928
			c16.55,16.041,13.651,43.012-5.499,55.924c-11.451,7.72-24.484,10.551-37.919,10.78c-18.638,0.318-37.293-0.206-55.935-0.637
			c-1.864-0.043-3.684-1.934-5.525-2.967c1.688-1.468,3.283-3.07,5.111-4.336c0.707-0.49,1.942-0.236,2.938-0.286
			c8.33-0.416,10.601-2.509,10.779-10.944c0.39-18.482,0.617-36.97,0.81-55.455c0.156-14.995,0.076-29.994,0.271-44.988
			c0.135-10.296-3.949-15.446-13.723-14.169c-1.124,0.146-2.54,0.168-3.413-0.39c-1.232-0.788-3.042-2.349-2.874-3.257
			c0.252-1.357,1.898-3.317,3.15-3.479c5.101-0.655,10.28-1.013,15.424-0.957c16.645,0.182,33.307,0.219,49.923,1.064
			c9.377,0.478,18.356,3.454,25.967,9.327c14.428,11.134,14.473,34.17,0.152,45.84C513.063,186.509,510.056,188.532,507.747,190.23z
			 M458.824,222.966c0.065,0,0.13,0,0.195,0c0,8.478-0.316,16.97,0.086,25.428c0.428,9.011,4.483,13.097,13.431,13.42
			c6.273,0.228,12.703,0.06,18.853-1.072c12.054-2.219,20.654-8.903,23.567-21.419c4.593-19.737-3.799-34.962-23.439-40.224
			c-8.175-2.19-17.093-1.562-25.661-2.351c-4.419-0.406-6.796,1.717-6.959,5.829C458.628,209.364,458.824,216.168,458.824,222.966z
			 M459.369,161.501c-0.185-0.001-0.37-0.001-0.555-0.002c0,6.981,0.157,13.967-0.052,20.941c-0.156,5.188,2.354,7.416,7.193,7.133
			c6.783-0.398,13.652-0.529,20.3-1.768c12.891-2.4,19.554-10.091,19.955-21.851c0.472-13.857-5.712-23.733-18.306-26.672
			c-7.976-1.86-16.422-1.72-24.662-2.432c-3.027-0.262-3.99,1.278-3.922,4.212C459.476,147.873,459.369,154.688,459.369,161.501z"/>
		<path fill-rule="evenodd" clip-rule="evenodd" d="M1114,222.5c-5.624,0-10.446,0-15.27,0c-10.631,0-21.263,0-32.576,0
			c0,11.791-0.146,22.722,0.09,33.645c0.07,3.238,2.084,5.521,5.732,5.82c1.649,0.137,3.259,0.73,4.908,0.879
			c2.625,0.236,5.059,1.178,4.238,4.069c-0.35,1.233-3.214,2.376-4.987,2.459c-4.475,0.21-8.982-0.416-13.469-0.321
			c-6.318,0.133-12.629,0.796-18.944,0.816c-1.495,0.005-2.996-1.646-4.494-2.534c1.15-1.422,2.171-2.985,3.508-4.203
			c0.647-0.59,1.875-0.634,2.861-0.747c4.719-0.544,6.43-3.342,6.447-7.866c0.035-8.823,0.43-17.646,0.422-26.468
			c-0.01-11.157-0.342-22.314-0.391-33.472c-0.02-4.295-1.703-6.629-6.062-7.693c-3.044-0.743-8.319-0.458-7.554-5.361
			c0.799-5.122,5.776-2.41,8.806-2.559c9.3-0.457,18.628-0.395,27.946-0.431c2.536-0.01,6.223-0.767,6.2,2.94
			c-0.009,1.485-3.335,3.832-5.464,4.271c-9.04,1.862-9.774,2.465-9.781,11.696c-0.004,5.301-0.001,10.602-0.001,16.228
			c15.989,0,31.563,0,47.794,0c0-7.859,0.216-15.798-0.205-23.702c-0.073-1.376-2.648-3.015-4.397-3.799
			c-1.914-0.857-4.326-0.572-6.294-1.354c-1.144-0.453-2.581-2.059-2.535-3.086c0.047-1.066,1.547-2.481,2.732-2.978
			c1.457-0.609,3.244-0.553,4.89-0.56c9.637-0.044,19.277-0.175,28.905,0.102c2.042,0.06,4.039,1.687,6.057,2.592
			c-1.88,1.461-3.576,3.793-5.672,4.235c-9.324,1.967-9.604,2.045-9.607,11.541c-0.005,18.997-0.012,37.993,0.005,56.99
			c0.005,6.303,1.243,7.646,7.527,8.996c2.696,0.579,6.897-0.094,6.537,4.288c-0.375,4.549-4.497,2.964-7.198,3.006
			c-9.458,0.148-18.921,0.065-28.382,0.048c-1.327-0.002-2.901,0.287-3.915-0.312c-1.134-0.671-2.362-2.177-2.411-3.366
			c-0.037-0.927,1.647-1.946,2.615-2.873c0.209-0.201,0.627-0.188,0.951-0.265C1114,260.703,1114,260.703,1114,250.026
			C1114,241.062,1114,232.097,1114,222.5z"/>
		<path fill-rule="evenodd" clip-rule="evenodd" d="M684.981,273.119c-30.21-0.006-50.985-20.426-50.981-50.109
			c0.003-29.159,19.736-48.812,48.98-48.785c29.814,0.027,49.928,20.453,49.794,50.547
			C732.64,255.117,709.616,274.686,684.981,273.119z M717.039,227.468c-0.159-12.079-3.826-23.743-12.132-33.75
			c-13.727-16.538-37.172-14.776-48.317,3.595c-11.574,19.077-6.604,47.67,10.723,61.693c14.329,11.598,34.449,8.018,43.883-7.817
			C715.401,244.131,716.925,236.386,717.039,227.468z"/>
		<path fill-rule="evenodd" clip-rule="evenodd" d="M872.628,220.238c9.196-9.598,18.558-19.044,27.509-28.864
			c3.789-4.155,2.723-6.059-2.699-7.308c-1.469-0.338-2.691-1.741-4.027-2.655c1.49-0.925,2.945-2.582,4.477-2.654
			c9.463-0.45,18.941-0.629,28.416-0.654c1.27-0.003,2.543,1.368,3.813,2.104c-0.806,1.248-1.527,3.518-2.433,3.594
			c-16.377,1.374-22.994,15.88-33.648,24.868c-3.643,3.073-6.658,6.89-10.141,10.558c12.57,12.847,24.683,25.454,37.127,37.724
			c2.199,2.169,5.729,3.067,8.747,4.301c2.276,0.931,4.718,1.461,7.075,2.166c0.113,4.069-1.677,5.83-5.447,5.583
			c-0.166-0.011-0.338-0.023-0.5,0.004c-14.219,2.355-24.996-2.16-33.772-14.134c-7.333-10.005-16.671-18.542-25.51-28.152
			c0,10.565-0.208,20.576,0.115,30.57c0.11,3.409,2.824,5.088,6.37,4.921c1.325-0.063,2.889-0.489,3.926,0.053
			c1.428,0.747,2.458,2.254,3.658,3.436c-1.332,1.215-2.527,2.665-4.051,3.554c-0.875,0.51-2.28,0.114-3.447,0.114
			c-9.63,0-19.26,0.002-28.89-0.012c-0.997-0.001-2.255,0.263-2.929-0.23c-1.064-0.777-2.211-2.016-2.403-3.207
			c-0.126-0.777,1.206-2.146,2.191-2.659c1.285-0.668,2.858-0.88,4.337-1.063c4.877-0.605,6.795-3.416,6.759-8.188
			c-0.148-19.828-0.12-39.658-0.292-59.486c-0.067-7.775-1.717-9.215-9.549-10.278c-1.34-0.182-2.477-1.866-3.708-2.856
			c1.251-1.127,2.479-3.202,3.755-3.231c11.122-0.258,22.256-0.258,33.379-0.014c1.397,0.03,2.754,1.925,4.129,2.955
			c-1.236,1.049-2.326,2.422-3.746,3.058c-1.465,0.655-3.571,0.116-4.824,0.955c-2,1.34-4.928,3.315-5.021,5.146
			c-0.497,9.732-0.234,19.503-0.234,29.261C871.636,219.755,872.132,219.996,872.628,220.238z"/>
		<path fill-rule="evenodd" clip-rule="evenodd" d="M1392.501,243.539c0-4.26,0.042-8.521-0.008-12.779
			c-0.134-11.319-0.194-22.642-0.5-33.956c-0.236-8.733-2.282-10.751-10.905-11.627c-0.993-0.101-2.257,0.171-2.925-0.343
			c-1.161-0.892-2.876-2.449-2.685-3.387c0.276-1.355,2.016-3.396,3.181-3.43c9.613-0.28,19.24-0.262,28.856-0.045
			c1.175,0.026,3.121,1.663,3.243,2.723c0.127,1.106-1.362,3.308-2.415,3.491c-6.478,1.135-7.434,5.555-7.545,11.022
			c-0.495,24.458-1.132,48.913-1.73,73.369c-0.022,0.942-0.184,1.882-1.449,3.629c-20.896-22.935-41.79-45.87-63.347-69.531
			c-0.622,13.56-1.21,26.106-1.766,38.655c-0.155,3.489-0.443,6.994-0.273,10.473c0.312,6.381,2.296,8.496,8.519,9.723
			c1.468,0.289,3.121,0.196,4.367,0.872c0.938,0.509,1.868,1.966,1.868,3.002c0.001,1.001-0.981,2.372-1.917,2.907
			c-1.071,0.613-2.564,0.625-3.881,0.657c-8.623,0.213-17.251,0.53-25.87,0.391c-1.818-0.029-3.608-1.812-5.412-2.787
			c1.499-1.4,2.771-3.531,4.535-4.079c8.73-2.715,10.225-4.633,10.418-13.764c0.349-16.474,0.857-32.943,1.319-49.415
			c0.173-6.19-3.325-11.306-9.344-13.423c-1.404-0.494-3.083-0.432-4.304-1.172c-1.466-0.889-2.575-2.363-3.839-3.584
			c1.541-0.983,3.062-2.766,4.627-2.807c5.473-0.142,10.984,0.091,16.427,0.684c1.708,0.186,3.549,1.674,4.812,3.043
			c17.15,18.599,34.209,37.281,51.293,55.941c1.786,1.951,3.589,3.887,5.385,5.83
			C1391.658,243.729,1392.08,243.634,1392.501,243.539z"/>
		<path fill-rule="evenodd" clip-rule="evenodd" d="M1232.934,268.463c-4.495,0.32-9.479,0.936-14.456,0.892
			c-1.784-0.017-3.555-1.625-5.332-2.507c1.493-1.455,2.739-3.608,4.523-4.24c6.65-2.357,7.46-3.188,5.221-9.631
			c-1.962-5.643-4.352-11.151-6.863-16.575c-0.521-1.125-2.402-2.271-3.677-2.295c-10.16-0.187-20.328-0.188-30.488,0
			c-1.294,0.023-3.146,1.151-3.745,2.291c-3.173,6.03-6.118,12.187-8.96,18.383c-1.747,3.811-0.553,6.436,3.707,7.418
			c1.131,0.261,2.514,0.383,3.267,1.104c1.099,1.054,1.732,2.593,2.563,3.925c-1.301,0.754-2.581,2.116-3.908,2.164
			c-8.635,0.306-17.283,0.48-25.92,0.305c-1.666-0.033-3.297-1.805-4.945-2.773c1.258-1.248,2.296-3.079,3.809-3.644
			c7.368-2.754,11.985-8.063,15.245-14.966c9.021-19.098,18.086-38.174,27.25-57.202c2.018-4.188,4.381-8.228,6.824-12.188
			c4.419-7.162,6.798-7.055,10.845,0.505c1.88,3.514,3.519,7.173,5.039,10.859c8.177,19.831,16.354,39.662,24.367,59.559
			c2.312,5.741,5.903,9.769,11.715,12.183c1.797,0.747,2.821,3.353,4.199,5.107c-1.942,0.72-3.875,2.009-5.83,2.045
			C1242.736,269.267,1238.079,268.76,1232.934,268.463z M1199.012,193.573c-5.65,11.669-10.568,21.826-15.657,32.336
			c9.893,0,18.942,0,28.724,0C1207.767,215.239,1203.648,205.049,1199.012,193.573z"/>
		<path fill-rule="evenodd" clip-rule="evenodd" d="M943.998,218.939c0.195-11.875,6.799-26.86,22.021-37.287
			c8.438-5.78,18.057-7.812,28.094-5.932c7.299,1.368,14.383,3.859,21.639,5.515c1.35,0.309,3.338-0.628,4.554-1.592
			c3.342-2.646,5.059-2.493,5.796,1.56c1.397,7.678,2.387,15.438,3.241,23.197c0.141,1.274-1.157,3.761-1.993,3.854
			c-1.421,0.157-3.479-0.748-4.434-1.9c-3.699-4.467-6.658-9.601-10.652-13.756c-6.682-6.95-15.282-9.921-24.901-9.38
			c-8.767,0.493-15.328,4.899-20.153,12.136c-11.701,17.548-9.127,43.571,5.836,58.539c10.824,10.828,25.563,12.778,38.166,4.049
			c6.066-4.202,10.943-10.104,16.473-15.109c1.347-1.219,3.143-1.941,4.732-2.892c0.312,1.988,1.437,4.312,0.78,5.899
			c-1.804,4.363-3.604,9.117-6.739,12.472c-13.591,14.547-36.151,19.18-54.276,11.771C954.533,262.87,944.005,246.1,943.998,218.939
			z"/>
		<path fill-rule="evenodd" clip-rule="evenodd" d="M748.547,224.611c0.7-20.69,8.775-37.185,28.226-46.168
			c13.998-6.467,28.103-2.683,41.733,2.212c2.793,1.003,4.363,1.179,6.457-0.969c2.85-2.922,5.039-2.337,5.748,1.691
			c1.328,7.531,2.346,15.128,3.124,22.735c0.142,1.38-1.474,2.939-2.278,4.416c-1.475-0.816-3.354-1.3-4.35-2.51
			c-3.685-4.48-6.564-9.726-10.67-13.739c-16.518-16.15-40.44-11.085-48.566,10.413c-7.126,18.855-4.441,36.44,9.637,51.374
			c9.955,10.561,24.765,12.589,36.916,4.622c6.434-4.218,11.594-10.359,17.447-15.497c1.464-1.285,3.387-2.047,5.1-3.05
			c0.248,2.04,1.33,4.473,0.588,6.044c-2.157,4.565-4.283,9.552-7.771,13.016c-22.716,22.571-60.369,17.903-75.433-9.062
			C750.039,242.234,748.436,233.649,748.547,224.611z"/>
		<path fill-rule="evenodd" clip-rule="evenodd" d="M608.667,268.119c-11.806,0-23.615-0.129-35.418,0.055
			c-5.806,0.09-11.599,0.869-17.406,1.117c-3.02,0.13-5.048-1.308-3.689-4.588c0.396-0.958,2.351-1.512,3.688-1.8
			c9.149-1.973,9.171-1.934,9.155-11.462c-0.03-18.812-0.073-37.625-0.118-56.438c-0.021-8.457-1.3-9.895-9.524-10.612
			c-2.29-0.2-4.968,0.306-4.569-3.469c0.368-3.481,2.833-2.966,5.191-2.963c10.619,0.01,21.241-0.163,31.855,0.046
			c1.636,0.032,3.24,1.715,4.858,2.635c-1.453,1.28-2.721,3.299-4.389,3.717c-7.892,1.979-9.216,3.166-9.258,11.263
			c-0.101,19.646,0.012,39.292-0.086,58.938c-0.018,3.584,1.229,5.18,4.93,5.112c7.489-0.136,14.997,0.216,22.467-0.19
			c2.362-0.129,5.2-1.496,6.817-3.231c3.264-3.502,5.771-7.699,8.75-11.484c0.715-0.908,2.054-1.325,3.106-1.968
			c0.58,1.213,1.833,2.554,1.63,3.619c-1.329,7.001-2.841,13.976-4.66,20.862c-0.255,0.965-2.473,1.856-3.857,1.987
			c-3.132,0.294-6.311,0.093-9.47,0.093C608.669,268.944,608.668,268.531,608.667,268.119z"/>
		<path fill-rule="evenodd" clip-rule="evenodd" d="M1277.094,179.37c6.801-0.4,13.601-0.995,20.404-1.063
			c1.672-0.018,3.359,1.68,5.04,2.589c-1.435,1.319-2.656,3.319-4.339,3.845c-9.988,3.121-10.028,3.006-10.031,13.508
			c-0.003,18.142-0.009,36.282,0.003,54.424c0.005,7.573,1.247,9.018,8.566,10.088c0.987,0.145,2.159-0.068,2.935,0.399
			c1.164,0.703,2.053,1.861,3.058,2.826c-1.114,1.022-2.146,2.787-3.358,2.922c-3.277,0.364-6.631-0.023-9.954-0.01
			c-7.457,0.031-14.919,0.294-22.368,0.082c-2.089-0.06-4.141-1.444-6.21-2.221c1.773-1.309,3.377-3.326,5.35-3.798
			c6.981-1.669,8.282-2.759,8.275-10.059c-0.017-19.8-0.145-39.601-0.332-59.399c-0.06-6.267-1.5-7.658-7.899-8.581
			c-0.986-0.143-2.135-0.069-2.912-0.562c-1.218-0.771-2.184-1.94-3.256-2.941c1.188-0.944,2.32-2.609,3.57-2.703
			c4.46-0.332,8.961-0.13,13.445-0.13C1277.085,178.847,1277.089,179.108,1277.094,179.37z"/>
		<path fill-rule="evenodd" clip-rule="evenodd" d="M113.343,87.532c-4.125,3.271-7.562,6.089-11.112,8.754
			c-0.999,0.75-2.322,1.469-3.513,1.496c-6.435,0.145-12.875,0.068-19.996,0.068c0.49-3.67,0.914-6.847,1.378-10.318
			C91.143,87.532,101.948,87.532,113.343,87.532z"/>
		<path fill-rule="evenodd" clip-rule="evenodd" d="M75.341,129.032c0.77-8.562,1.3-15.614,2.15-22.628
			c0.121-0.998,1.756-2.524,2.762-2.583c4.718-0.275,9.461-0.122,14.137-0.122c-3.886,7.835-7.292,15.334-11.377,22.443
			C82.13,127.679,78.802,127.809,75.341,129.032z"/>
		<path fill-rule="evenodd" clip-rule="evenodd" d="M201.413,408.569c3.495,13.534,7.163,27.739,10.767,41.698
			c-3.838-0.981-6.943-3.602-8.046-8.436c-0.404-1.772-1.035-3.529-1.813-5.175C197.833,427.158,197.639,417.565,201.413,408.569z"
			/>
		<path fill-rule="evenodd" clip-rule="evenodd" d="M202.618,446.069c-3.382,0-6.304,0-10.006,0
			c1.267-5.509,2.43-10.567,3.954-17.191C198.868,435.418,200.71,440.65,202.618,446.069z"/>
		<path fill-rule="evenodd" clip-rule="evenodd" fill="#FFFFFF" d="M324.878,225.612c29.301,2.353,49.784,14.285,61.848,38.722
			c5.911,11.973,1.125,26.151-11.077,35.6c-12.665,9.808-27.313,14.953-42.825,18.024c-12.471,2.469-12.429,2.44-20.322-7.917
			c-9.266-12.157-17.819-24.819-18.829-40.575c-1.005-15.68,4.479-29.321,17.28-38.796
			C315.339,227.425,321.614,226.733,324.878,225.612z"/>
		<path fill-rule="evenodd" clip-rule="evenodd" fill="#FFFFFF" d="M458.824,222.966c0-6.798-0.196-13.602,0.073-20.389
			c0.163-4.112,2.54-6.235,6.959-5.829c8.568,0.788,17.486,0.16,25.661,2.351c19.64,5.262,28.032,20.486,23.439,40.224
			c-2.913,12.516-11.513,19.2-23.567,21.419c-6.15,1.132-12.579,1.3-18.853,1.072c-8.948-0.323-13.003-4.409-13.431-13.42
			c-0.402-8.458-0.086-16.95-0.086-25.428C458.954,222.966,458.889,222.966,458.824,222.966z"/>
		<path fill-rule="evenodd" clip-rule="evenodd" fill="#FFFFFF" d="M459.369,161.501c0-6.812,0.107-13.628-0.05-20.438
			c-0.067-2.934,0.895-4.474,3.922-4.212c8.239,0.712,16.686,0.571,24.662,2.432c12.594,2.938,18.778,12.814,18.306,26.672
			c-0.401,11.76-7.064,19.45-19.955,21.851c-6.647,1.238-13.517,1.369-20.3,1.768c-4.839,0.283-7.349-1.944-7.193-7.133
			c0.209-6.975,0.052-13.96,0.052-20.941C458.999,161.5,459.184,161.5,459.369,161.501z"/>
		<path fill-rule="evenodd" clip-rule="evenodd" fill="#FFFFFF" d="M717.039,227.468c-0.114,8.918-1.638,16.663-5.844,23.721
			c-9.434,15.835-29.554,19.415-43.883,7.817c-17.327-14.023-22.296-42.616-10.723-61.693c11.145-18.371,34.59-20.133,48.317-3.595
			C713.213,203.725,716.88,215.389,717.039,227.468z"/>
		<path fill-rule="evenodd" clip-rule="evenodd" fill="#FFFFFF" d="M1199.012,193.573c4.637,11.476,8.755,21.666,13.066,32.336
			c-9.781,0-18.831,0-28.724,0C1188.443,215.399,1193.361,205.242,1199.012,193.573z"/>
	</g>
</g>
</svg>
